<?xml version="1.0" ?><svg style="enable-background:new 0 0 48 48;" version="1.1" viewBox="0 0 48 48" xml:space="preserve" xmlns="http://www.w3.org/2000/svg" xmlns:xlink="http://www.w3.org/1999/xlink"><g id="Icons"><g><path d="M24.00051,8.6541c-8.46997,0-15.34003,6.87-15.34003,15.35004    c0,8.46997,6.87006,15.33997,15.34003,15.33997s15.34002-6.87,15.34002-15.33997    C39.34054,15.5241,32.47048,8.6541,24.00051,8.6541z M32.1805,19.81414c0,0-0.02997,1.88-0.31,3.06    c-0.27997,1.16998-1.21997,4.44-4.02002,6.73999c-2.79999,2.29999-6.21997,2.79999-8.15997,2.66998    c-1.92999-0.13-4.31-0.87-5.84003-1.82001c0,0,3.51001,0.38,6.10004-1.75995c0,0-2.62,0.12-3.85999-2.89001    c0,0,0.88995,0.15997,1.85999-0.10999c0,0-3.29999-0.60004-3.34003-4.15002c0,0,1.08002,0.52997,1.88,0.47998    c0,0-3.14996-2.40997-1.22998-5.51996c0,0,3.14996,4.17999,8.63,4.33997c-1.33002-3.66998,4.63-7.14996,7.07996-3.81    c0,0,0.95001-0.02997,2.69-0.96997c0,0-0.41998,1.31995-1.75,2.19995c0,0,1-0.00995,2.23004-0.53998    C34.0505,17.87413,33.3005,19.0241,32.1805,19.81414z" style="fill:#4AA0EC;"/><circle cx="24" cy="24" r="15.34377" style="fill:none;stroke:#303030;stroke-width:0.7;stroke-linecap:round;stroke-linejoin:round;stroke-miterlimit:10;"/><g><path d="     M22.38552,11.74568c0.53671-0.0959,1.07632-0.15841,1.61329-0.1855" style="fill:none;stroke:#303030;stroke-width:0.7;stroke-linecap:round;stroke-linejoin:round;stroke-miterlimit:10;"/><path d="     M15.9629,14.75764c1.44032-1.24238,3.22472-2.1756,5.10362-2.70769" style="fill:none;stroke:#303030;stroke-width:0.7;stroke-linecap:round;stroke-linejoin:round;stroke-miterlimit:10;"/></g><path d="    M23.88775,20.85026c-1.32288-3.66498,4.63122-7.14932,7.0845-3.8044c0,0,0.95097-0.03413,2.68647-0.96863    c0,0-0.41385,1.32145-1.74885,2.19597c0,0,1.0146-0.00657,2.2428-0.55392c0,0-0.7743,1.2549-1.9758,2.09595    c0,0-0.0267,1.88235-0.30705,3.05715s-1.21485,4.44555-4.01835,6.74174s-6.2211,2.8035-8.15685,2.67    s-4.31205-0.86775-5.8473-1.8156c0,0,3.51105,0.3738,6.10095-1.7622c0,0-2.6166,0.12015-3.85815-2.89695    c0,0,0.89445,0.1602,1.85565-0.1068c0,0-3.29745-0.60075-3.3375-4.15185c0,0,1.08135,0.534,1.88235,0.4806    c0,0-3.02399-2.30643-1.33906-5.32501c0.04898-0.08776,0.1739-0.10765,0.2385-0.03066    C16.03036,17.43888,19.05444,20.71502,23.88775,20.85026z" style="fill:none;stroke:#303030;stroke-width:0.7;stroke-linecap:round;stroke-linejoin:round;stroke-miterlimit:10;"/></g></g></svg>